<svg width="132" height="37" viewBox="0 0 132 37" fill="none" xmlns="http://www.w3.org/2000/svg">
<path d="M3.36 35L3.36 11.192H9.312V13.88H10.176C10.528 12.92 11.104 12.216 11.904 11.768C12.736 11.32 13.696 11.096 14.784 11.096H17.664V16.472H14.688C13.152 16.472 11.888 16.888 10.896 17.72C9.904 18.52 9.408 19.768 9.408 21.464L9.408 35H3.36ZM32.3955 35.672C30.0275 35.672 27.9315 35.176 26.1075 34.184C24.3155 33.16 22.9075 31.736 21.8835 29.912C20.8915 28.056 20.3955 25.88 20.3955 23.384V22.808C20.3955 20.312 20.8915 18.152 21.8835 16.328C22.8755 14.472 24.2675 13.048 26.0595 12.056C27.8515 11.032 29.9315 10.52 32.2995 10.52C34.6355 10.52 36.6675 11.048 38.3955 12.104C40.1235 13.128 41.4675 14.568 42.4275 16.424C43.3875 18.248 43.8675 20.376 43.8675 22.808V24.872H26.5395C26.6035 26.504 27.2115 27.832 28.3635 28.856C29.5155 29.88 30.9235 30.392 32.5875 30.392C34.2835 30.392 35.5315 30.024 36.3315 29.288C37.1315 28.552 37.7395 27.736 38.1555 26.84L43.0995 29.432C42.6515 30.264 41.9955 31.176 41.1315 32.168C40.2995 33.128 39.1795 33.96 37.7715 34.664C36.3635 35.336 34.5715 35.672 32.3955 35.672ZM26.5875 20.36H37.7235C37.5955 18.984 37.0355 17.88 36.0435 17.048C35.0835 16.216 33.8195 15.8 32.2515 15.8C30.6195 15.8 29.3235 16.216 28.3635 17.048C27.4035 17.88 26.8115 18.984 26.5875 20.36ZM60.4346 35.672C58.1306 35.672 56.0346 35.192 54.1466 34.232C52.2906 33.272 50.8186 31.88 49.7306 30.056C48.6426 28.232 48.0986 26.024 48.0986 23.432V22.76C48.0986 20.168 48.6426 17.96 49.7306 16.136C50.8186 14.312 52.2906 12.92 54.1466 11.96C56.0346 11 58.1306 10.52 60.4346 10.52C62.7066 10.52 64.6586 10.92 66.2906 11.72C67.9226 12.52 69.2346 13.624 70.2266 15.032C71.2506 16.408 71.9226 17.976 72.2426 19.736L66.3866 20.984C66.2586 20.024 65.9706 19.16 65.5226 18.392C65.0746 17.624 64.4346 17.016 63.6026 16.568C62.8026 16.12 61.7946 15.896 60.5786 15.896C59.3626 15.896 58.2586 16.168 57.2666 16.712C56.3066 17.224 55.5386 18.008 54.9626 19.064C54.4186 20.088 54.1466 21.352 54.1466 22.856V23.336C54.1466 24.84 54.4186 26.12 54.9626 27.176C55.5386 28.2 56.3066 28.984 57.2666 29.528C58.2586 30.04 59.3626 30.296 60.5786 30.296C62.4026 30.296 63.7786 29.832 64.7066 28.904C65.6666 27.944 66.2746 26.696 66.5306 25.16L72.3866 26.552C71.9706 28.248 71.2506 29.8 70.2266 31.208C69.2346 32.584 67.9226 33.672 66.2906 34.472C64.6586 35.272 62.7066 35.672 60.4346 35.672ZM86.9756 35.672C85.0556 35.672 83.2796 35.208 81.6476 34.28C80.0156 33.32 78.7036 31.928 77.7116 30.104C76.7196 28.28 76.2236 26.072 76.2236 23.48V22.712C76.2236 20.12 76.7196 17.912 77.7116 16.088C78.7036 14.264 80.0156 12.888 81.6476 11.96C83.3116 11 85.0876 10.52 86.9756 10.52C89.1516 10.52 90.7996 10.888 91.9196 11.624C93.0716 12.328 93.9196 13.144 94.4636 14.072H95.3276V11.192L101.28 11.192V28.568C101.28 29.528 101.728 30.008 102.624 30.008H104.544V35H99.7436C98.5916 35 97.6316 34.68 96.8636 34.04C96.1276 33.4 95.7596 32.52 95.7596 31.4V31.352H94.8956C94.3516 32.536 93.4716 33.56 92.2556 34.424C91.0716 35.256 89.3116 35.672 86.9756 35.672ZM88.7996 30.392C90.6876 30.392 92.2396 29.8 93.4556 28.616C94.7036 27.4 95.3276 25.64 95.3276 23.336V22.856C95.3276 20.552 94.7036 18.808 93.4556 17.624C92.2076 16.408 90.6556 15.8 88.7996 15.8C86.9436 15.8 85.3916 16.408 84.1436 17.624C82.8956 18.808 82.2716 20.552 82.2716 22.856V23.336C82.2716 25.64 82.8956 27.4 84.1436 28.616C85.3916 29.8 86.9436 30.392 88.7996 30.392ZM109.063 35V1.4H115.111V35H109.063ZM121.813 35V1.4L127.861 1.4V35H121.813Z" fill="#C6E9D9"/>
</svg>
